<mxfile host="app.diagrams.net" modified="2022-02-10T03:35:22.723Z" agent="5.0 (Macintosh; Intel Mac OS X 10_15_7) AppleWebKit/537.36 (KHTML, like Gecko) Chrome/97.0.4692.99 Safari/537.36" etag="ydTN-QDiazWpGcViQlK0" version="16.5.3" type="github">
  <diagram id="g5VEEOEyUIgqn1fcspKq" name="Page-1">
    <mxGraphModel dx="1079" dy="727" grid="1" gridSize="10" guides="1" tooltips="1" connect="1" arrows="1" fold="1" page="1" pageScale="1" pageWidth="850" pageHeight="1100" math="0" shadow="0">
      <root>
        <mxCell id="0" />
        <mxCell id="1" parent="0" />
        <mxCell id="Pj8NT4zhlCkCO9bRaPEd-1" value="member" style="rounded=0;whiteSpace=wrap;html=1;" vertex="1" parent="1">
          <mxGeometry x="70" y="80" width="90" height="50" as="geometry" />
        </mxCell>
        <mxCell id="Pj8NT4zhlCkCO9bRaPEd-3" value="session&amp;nbsp;" style="whiteSpace=wrap;html=1;" vertex="1" parent="1">
          <mxGeometry x="330" y="290" width="120" height="60" as="geometry" />
        </mxCell>
        <mxCell id="Pj8NT4zhlCkCO9bRaPEd-4" value="room" style="whiteSpace=wrap;html=1;" vertex="1" parent="1">
          <mxGeometry x="410" y="440" width="120" height="60" as="geometry" />
        </mxCell>
        <mxCell id="Pj8NT4zhlCkCO9bRaPEd-5" value="trainers&amp;nbsp;&lt;br&gt;" style="whiteSpace=wrap;html=1;" vertex="1" parent="1">
          <mxGeometry x="350" y="310" width="120" height="60" as="geometry" />
        </mxCell>
      </root>
    </mxGraphModel>
  </diagram>
</mxfile>
